<?xml version="1.0" encoding="UTF-8"?>
<svg id="Layer_2" data-name="Layer 2" xmlns="http://www.w3.org/2000/svg" viewBox="0 0 148.42 33.87">
  <defs>
    <style>
      .cls-1 {
        fill: none;
      }

      .cls-2 {
        fill: #fff;
      }
    </style>
  </defs>
  <g id="Layer_1-2" data-name="Layer 1">
    <g>
      <g>
        <path class="cls-2" d="M38.7,13.95c.88-1.19,1.9-2.12,3.07-2.8,1.17-.68,2.53-1.02,4.08-1.02,1.21,0,2.3.22,3.25.67.96.44,1.77,1.08,2.43,1.92.67.84,1.18,1.86,1.53,3.08.35,1.22.53,2.6.53,4.15,0,1.63-.2,3.12-.59,4.46-.39,1.34-.96,2.49-1.71,3.44-.75.95-1.66,1.68-2.74,2.2-1.08.52-2.31.78-3.7.78s-2.64-.27-3.65-.82c-1-.55-1.87-1.36-2.6-2.43l-.14,2.49c-.04.34-.22.51-.55.51h-1.17V1.16h1.94v12.79ZM38.7,26.18c.78,1.16,1.64,1.97,2.58,2.44.94.46,1.99.7,3.16.7s2.25-.22,3.14-.65c.9-.43,1.64-1.05,2.24-1.85.6-.8,1.05-1.77,1.34-2.92.3-1.14.44-2.43.44-3.86,0-2.78-.55-4.86-1.66-6.26-1.1-1.4-2.65-2.1-4.65-2.1-1.43,0-2.67.34-3.74,1.03-1.06.69-2.02,1.64-2.87,2.87v10.61Z"/>
        <path class="cls-2" d="M62,3.53c0,.24-.05.47-.15.68-.1.21-.23.39-.39.56s-.35.29-.57.38c-.22.09-.44.14-.69.14s-.47-.05-.69-.14c-.22-.09-.4-.22-.57-.38s-.29-.35-.38-.56c-.09-.21-.14-.43-.14-.68s.05-.47.14-.7c.09-.22.22-.41.38-.58s.35-.29.57-.38c.22-.09.44-.14.69-.14s.47.05.69.14c.22.09.4.22.57.38s.29.35.39.58c.1.22.15.45.15.7ZM61.18,10.46v20.11h-1.92V10.46h1.92Z"/>
        <path class="cls-2" d="M68.03,30.56V10.46h1.07c.34,0,.53.17.59.51l.18,2.91c.78-1.12,1.68-2.02,2.69-2.71,1.01-.69,2.15-1.03,3.42-1.03,1.47,0,2.64.42,3.53,1.27.88.85,1.48,2.03,1.79,3.54.24-.82.58-1.54,1.02-2.14.44-.61.94-1.11,1.51-1.51.57-.4,1.18-.69,1.85-.88.67-.19,1.35-.28,2.05-.28,1,0,1.89.17,2.69.5.79.33,1.47.82,2.02,1.47.55.65.98,1.44,1.27,2.38.3.94.44,2.02.44,3.23v12.85h-1.92v-12.85c0-1.97-.42-3.47-1.27-4.5-.85-1.03-2.06-1.55-3.64-1.55-.7,0-1.37.13-2.01.38-.64.26-1.21.64-1.7,1.14-.49.51-.88,1.14-1.17,1.89-.29.75-.43,1.63-.43,2.63v12.85h-1.94v-12.85c0-1.95-.39-3.45-1.16-4.49-.77-1.04-1.91-1.56-3.4-1.56-1.09,0-2.1.32-3.03.97s-1.76,1.54-2.49,2.69v15.24h-1.94Z"/>
        <path class="cls-2" d="M103.53,3.53c0,.24-.05.47-.15.68-.1.21-.23.39-.39.56s-.35.29-.57.38c-.22.09-.44.14-.69.14s-.47-.05-.69-.14c-.22-.09-.4-.22-.57-.38s-.29-.35-.38-.56c-.09-.21-.14-.43-.14-.68s.05-.47.14-.7c.09-.22.22-.41.38-.58s.35-.29.57-.38c.22-.09.44-.14.69-.14s.47.05.69.14c.22.09.4.22.57.38s.29.35.39.58c.1.22.15.45.15.7ZM102.7,10.46v20.11h-1.92V10.46h1.92Z"/>
        <path class="cls-2" d="M111.39,13.97c.93-1.16,2-2.09,3.22-2.79,1.22-.7,2.58-1.05,4.07-1.05,1.1,0,2.08.18,2.92.53.84.35,1.54.86,2.09,1.52.55.66.97,1.45,1.25,2.38.28.93.42,1.98.42,3.15v12.85h-1.94v-12.85c0-1.89-.43-3.36-1.29-4.44-.86-1.07-2.18-1.61-3.94-1.61-1.31,0-2.53.33-3.67,1-1.14.67-2.15,1.59-3.04,2.78v15.12h-1.94V10.46h1.07c.34,0,.53.17.59.51l.18,3.01Z"/>
        <path class="cls-2" d="M134.75,3.53c0,.24-.05.47-.15.68-.1.21-.23.39-.39.56-.16.16-.35.29-.57.38-.22.09-.44.14-.69.14s-.47-.05-.69-.14c-.22-.09-.4-.22-.57-.38-.16-.16-.29-.35-.38-.56-.09-.21-.14-.43-.14-.68s.05-.47.14-.7c.09-.22.22-.41.38-.58.16-.16.35-.29.57-.38.22-.09.44-.14.69-.14s.47.05.69.14c.22.09.4.22.57.38.16.16.29.35.39.58.1.22.15.45.15.7ZM133.92,10.46v20.11h-1.92V10.46h1.92Z"/>
        <path class="cls-2" d="M128.74,15.44c.13-.02.26-.04.39-.06-.13.01-.26.03-.39.06Z"/>
        <path class="cls-2" d="M124.17,28.3s.03.03.04.05c0,0,0,0,.01.01.1.11.2.22.31.33-.12-.12-.24-.25-.36-.39h0Z"/>
        <path class="cls-2" d="M124.17,28.3s.03.03.04.05c0,0,0,0,.01.01.1.11.2.22.31.33-.12-.12-.24-.25-.36-.39h0Z"/>
      </g>
      <g>
        <g>
          <path class="cls-2" d="M4.49,28.09c3.63,3.28,8.21,4.05,10.24,1.73,2.03-2.32.73-6.86-2.89-10.14-3.63-3.28-8.21-4.05-10.24-1.73-2.03,2.32-.73,6.86,2.89,10.14ZM2.21,18.5c1.65-1.89,5.65-1.01,8.94,1.96,3.29,2.97,4.62,6.91,2.97,8.8-1.65,1.89-5.65,1.01-8.94-1.96-3.29-2.97-4.62-6.91-2.97-8.8Z"/>
          <path class="cls-2" d="M26.64,8.06C20.43,2.54,12.58,1.24,9.11,5.15c-3.47,3.91-1.25,11.55,4.95,17.07,6.21,5.51,14.06,6.82,17.53,2.91,3.47-3.91,1.25-11.55-4.95-17.07ZM30.55,24.2c-2.82,3.18-9.68,1.7-15.32-3.31-5.64-5.01-7.92-11.64-5.09-14.82,2.82-3.18,9.68-1.7,15.32,3.31,5.63,5.01,7.91,11.64,5.09,14.82Z"/>
        </g>
        <rect class="cls-1" width="33.87" height="33.87"/>
      </g>
      <g>
        <path class="cls-2" d="M145.73,30.79v-1.78l-.94.78c-.78.65-1.74,1-2.76,1-2.41,0-4.38-2.03-4.38-4.52s1.96-4.52,4.38-4.52c1.02,0,1.98.35,2.76,1l.94.78v-1.8h.78v9.06h-.78ZM145.64,25.85v-.07c-.25-1.91-1.74-3.23-3.61-3.23-2.05,0-3.61,1.62-3.61,3.72s1.56,3.7,3.61,3.7c1.87,0,3.36-1.33,3.61-3.21v-.91Z"/>
        <path class="cls-2" d="M147.58,18.52c0-.24.2-.42.42-.42.24,0,.42.18.42.42,0,.22-.18.4-.42.4-.22,0-.42-.18-.42-.4ZM148.31,21.71v9.12h-.73v-9.12h.73Z"/>
      </g>
    </g>
  </g>
</svg>