<?xml version="1.0" encoding="UTF-8"?>
<svg id="Layer_2" data-name="Layer 2" xmlns="http://www.w3.org/2000/svg" xmlns:xlink="http://www.w3.org/1999/xlink" viewBox="0 0 676.56 216.46">
  <defs>
    <style>
      .cls-1 {
        fill: url(#linear-gradient-8);
      }

      .cls-2 {
        fill: url(#linear-gradient-7);
      }

      .cls-3 {
        fill: url(#linear-gradient-5);
      }

      .cls-4 {
        fill: url(#linear-gradient-6);
      }

      .cls-5 {
        fill: url(#linear-gradient-9);
      }

      .cls-6 {
        fill: url(#linear-gradient-4);
      }

      .cls-7 {
        fill: url(#linear-gradient-3);
      }

      .cls-8 {
        fill: url(#linear-gradient-2);
      }

      .cls-9 {
        fill: url(#linear-gradient);
      }

      .cls-10 {
        fill: #ccc;
      }

      .cls-11 {
        fill: #ed2024;
      }

      .cls-12 {
        fill: url(#linear-gradient-10);
      }

      .cls-13 {
        opacity: .28;
      }

      .cls-14 {
        opacity: .02;
      }
    </style>
    <linearGradient id="linear-gradient" x1="328.37" y1="174.35" x2="342.01" y2="174.35" gradientUnits="userSpaceOnUse">
      <stop offset="0" stop-color="#006199"/>
      <stop offset="1" stop-color="#005e94" stop-opacity="0"/>
    </linearGradient>
    <linearGradient id="linear-gradient-2" x1="18.42" y1="42.16" x2="32.05" y2="42.16" xlink:href="#linear-gradient"/>
    <linearGradient id="linear-gradient-3" x1="61.74" y1="108.22" x2="298.53" y2="108.22" xlink:href="#linear-gradient"/>
    <linearGradient id="linear-gradient-4" x1="0" y1="108.23" x2="360.28" y2="108.23" xlink:href="#linear-gradient"/>
    <linearGradient id="linear-gradient-5" x1="71.04" y1="109.18" x2="84.67" y2="109.18" gradientUnits="userSpaceOnUse">
      <stop offset="0" stop-color="#0087bf"/>
      <stop offset="1" stop-color="#0087bf" stop-opacity="0"/>
      <stop offset="1" stop-color="#0087bf"/>
      <stop offset="1" stop-color="#0087bf"/>
      <stop offset="1" stop-color="#000"/>
    </linearGradient>
    <linearGradient id="linear-gradient-6" x1="275.31" x2="288.95" xlink:href="#linear-gradient-5"/>
    <linearGradient id="linear-gradient-7" x1="97.5" y1="108.23" x2="262.76" y2="108.23" xlink:href="#linear-gradient"/>
    <linearGradient id="linear-gradient-8" x1="173.31" y1="108.23" x2="186.95" y2="108.23" xlink:href="#linear-gradient-5"/>
    <linearGradient id="linear-gradient-9" x1="59.97" y1="108.23" x2="300.29" y2="108.23" xlink:href="#linear-gradient"/>
    <linearGradient id="linear-gradient-10" x1="0" y1="108.23" x2="360.28" y2="108.23" gradientUnits="userSpaceOnUse">
      <stop offset="0" stop-color="#75ddff"/>
      <stop offset=".12" stop-color="#66d2f7" stop-opacity=".88"/>
      <stop offset="1" stop-color="#0087bf" stop-opacity="0"/>
    </linearGradient>
  </defs>
  <g id="Layer_1-2" data-name="Layer 1">
    <path class="cls-10" d="M349.64,115.4v-59.44h14.94v58.85c0,23.15,10.6,33.6,29.42,33.6s29.57-10.45,29.57-33.6v-58.85h14.49v59.44c0,30.32-16.58,46.3-44.21,46.3s-44.21-15.98-44.21-46.3Z"/>
    <path class="cls-10" d="M468.67,55.95h14.94v91.55h56.61v12.99h-71.54V55.95Z"/>
    <path class="cls-10" d="M568.43,68.95h-35.85v-12.99h86.48v12.99h-35.85v91.55h-14.79v-91.55Z"/>
    <path class="cls-11" d="M676.56,99.56c0,10.45-8.96,19.12-26.88,19.12-10.75,0-21.06-2.99-25.99-7.62l4.18-7.92c4.78,3.88,12.84,6.57,21.81,6.57,11.05,0,16.43-3.88,16.43-10.15s-4.93-10.01-15.83-10.01h-7.02v-7.02l16.73-17.92h-34.35v-8.66h47.94v6.72l-17.62,18.97c13.59,1.05,20.61,8.22,20.61,17.92Z"/>
    <g>
      <g>
        <g class="cls-14">
          <path class="cls-9" d="M335.19,181.17c-3.76,0-6.82-3.06-6.82-6.82s3.06-6.82,6.82-6.82,6.82,3.06,6.82,6.82-3.06,6.82-6.82,6.82ZM335.19,170.85c-1.93,0-3.5,1.57-3.5,3.5s1.57,3.5,3.5,3.5,3.5-1.57,3.5-3.5-1.57-3.5-3.5-3.5Z"/>
        </g>
        <g>
          <path class="cls-8" d="M25.23,48.98c-3.76,0-6.82-3.06-6.82-6.82s3.06-6.82,6.82-6.82,6.82,3.06,6.82,6.82-3.06,6.82-6.82,6.82ZM25.23,38.66c-1.93,0-3.5,1.57-3.5,3.5s1.57,3.5,3.5,3.5,3.5-1.57,3.5-3.5-1.57-3.5-3.5-3.5Z"/>
          <g>
            <path class="cls-7" d="M61.76,196.05s.01.02.02.03c5.14.43,12.14,1.16,20.77,2.23.02-.01.03-.02.05-.03-8.67-1.07-15.69-1.8-20.85-2.23ZM277.66,198.3s.03.01.04.02c10.45-1.3,17.36-1.95,20.79-2.23.01-.01.02-.03.03-.04-3.43.29-10.35.95-20.87,2.25ZM271.08,199.14h-.01c-12.75,1.66-29.65,4.13-50.8,7.73-5.35.92-10.19,1.88-14.47,2.75-9.63,1.94-17.25,3.47-25.73,3.5-8.39,0-15.99-1.54-25.62-3.48-4.27-.86-9.13-1.84-14.49-2.76-19.82-3.38-36.98-5.93-50.78-7.73h-.01s-.02,0-.03.01c13.81,1.81,30.99,4.37,50.84,7.74,5.37.93,10.21,1.91,14.5,2.77,9.61,1.94,17.21,3.47,25.62,3.47,8.49-.02,16.1-1.55,25.73-3.48,4.27-.86,9.11-1.84,14.46-2.76,21.15-3.6,38.06-6.06,50.82-7.74-.01-.01-.02-.01-.03-.01ZM82.65,18.13c-10.15,1.24-16.88,1.9-20.89,2.24-.01.01-.01.02-.02.03,4.02-.35,10.75-1,20.96-2.24-.02-.01-.04-.01-.05-.03ZM298.51,20.37c-3.94-.32-10.6-.95-20.9-2.23-.01,0-.02.01-.03.01,10.35,1.3,17,1.93,20.94,2.24,0-.01-.01-.01-.01-.02ZM205.77,6.8c-9.62-1.95-17.22-3.48-25.65-3.48-8.41.02-16.04,1.56-25.67,3.5-4.29.85-9.13,1.83-14.49,2.75-18.06,3.08-35.43,5.74-50.69,7.74.02,0,.03.01.05.01,15.26-2,32.62-4.63,50.65-7.72,5.37-.92,10.21-1.9,14.49-2.76,9.64-1.94,17.26-3.46,25.68-3.48,8.41,0,16.01,1.54,25.65,3.47,4.29.86,9.14,1.84,14.52,2.77,18.01,3.07,35.37,5.72,50.61,7.72.01,0,.03-.01.04-.01-15.27-2-32.64-4.65-50.69-7.74-5.37-.92-10.23-1.9-14.52-2.76Z"/>
            <path class="cls-6" d="M343.73,139.01v-60.05c0-7.51,3.83-12.11,7.9-16.98,4.25-5.11,8.65-10.39,8.65-19.1,0-7.93-2.31-14.19-6.84-18.64-7.09-6.92-16.98-6.77-17.36-6.75h-30.26c-1.08,0-3.03-.11-5.54-.29-.24-.02-.48-.03-.74-.05-3.82-.29-10.73-.94-21.95-2.35-16.62-2.05-36.24-4.99-56.71-8.49-5.33-.92-9.95-1.84-14.42-2.75C196.65,1.59,188.91.03,180.16.03c-8.76.01-16.51,1.57-26.33,3.55-4.46.89-9.08,1.83-14.39,2.74-20.47,3.5-40.08,6.43-56.7,8.49-11.03,1.36-18.04,2.02-21.96,2.35-.27.02-.54.04-.8.05-2.47.19-4.4.29-5.47.29h-30.22c-.42-.02-10.33-.18-17.42,6.74C2.31,28.67,0,34.94,0,42.88c0,8.71,4.4,13.99,8.67,19.1,4.05,4.87,7.89,9.48,7.89,16.98v58.53c0,7.5-3.83,12.1-7.89,16.97-4.26,5.12-8.67,10.4-8.67,19.1,0,7.93,2.31,14.2,6.85,18.64,7.09,6.93,16.97,6.76,17.35,6.76h30.27c.65,0,2.21.03,5.53.29.24.01.48.03.74.05,13.62,1.08,41.45,4.5,78.66,10.83,5.32.91,9.94,1.84,14.4,2.74,9.8,1.98,17.54,3.55,26.35,3.55,8.74-.02,16.49-1.58,26.31-3.56,4.45-.89,9.05-1.82,14.36-2.73,46.13-7.85,71.88-10.29,78.66-10.83.27-.02.54-.04.8-.06,2.47-.18,4.4-.28,5.47-.28h30.22c.42.01,10.31.18,17.39-6.74,4.55-4.43,6.85-10.71,6.85-18.66,0-8.7-4.4-13.98-8.65-19.1-3.78-4.54-7.36-8.83-7.84-15.46ZM139.97,9.56c5.36-.92,10.2-1.9,14.49-2.75,9.63-1.94,17.26-3.47,25.67-3.5,8.42,0,16.02,1.54,25.65,3.48,4.29.86,9.15,1.84,14.52,2.76,18.05,3.08,35.42,5.74,50.69,7.74-.01,0-.03.01-.04.01-10.41,3.61-25.46,5.53-36.26,5.53-8.79,0-19.07-2.36-27.33-4.25-3.33-.76-6.48-1.48-9.17-1.98-8.28-1.52-13.74-1.52-18.12-1.52s-9.69,0-17.95,1.52c-2.76.49-5.98,1.23-9.38,2.01-8.63,1.98-18.4,4.22-27.13,4.22-10.79,0-25.83-1.92-36.25-5.53-.02,0-.03-.01-.05-.01,15.26-2,32.63-4.65,50.69-7.74ZM54.48,195.63h-30.3c-.09.02-8.96.12-15.02-5.82-3.86-3.79-5.82-9.25-5.82-16.25,0-7.5,3.83-12.1,7.89-16.97,4.26-5.12,8.67-10.4,8.67-19.1v-58.53c0-8.71-4.4-13.99-8.67-19.1-4.05-4.87-7.89-9.48-7.89-16.98,0-6.99,1.96-12.46,5.83-16.25,6.06-5.95,14.94-5.82,15.08-5.82h30.26c.71,0,1.68-.04,2.92-.11-18.33,25.62-27.99,55.79-27.99,87.51s9.67,61.87,28,87.51c-1.24-.06-2.24-.11-2.95-.11ZM220.29,206.89c-5.35.92-10.18,1.9-14.46,2.76-9.63,1.94-17.25,3.46-25.73,3.48-8.4,0-16-1.54-25.62-3.47-4.29-.86-9.13-1.84-14.5-2.77-19.86-3.37-37.03-5.93-50.84-7.74.01-.01.02-.01.03-.01h.01c10.42-3.64,25.55-5.58,36.4-5.58,8.73,0,18.51,2.24,27.13,4.22,3.41.78,6.62,1.52,9.37,2.01,8.28,1.52,13.42,1.52,17.96,1.52s9.84,0,18.12-1.52c2.7-.48,5.84-1.21,9.17-1.98,8.25-1.9,18.54-4.25,27.33-4.25,10.84,0,25.97,1.94,36.4,5.58h.01s.02,0,.03.01c-12.76,1.67-29.67,4.14-50.82,7.74ZM298.53,196.04s-.02.03-.03.04c-3.43.28-10.34.94-20.79,2.23-.01-.01-.02-.02-.04-.02-10.42-5.24-29.83-8.05-42.99-8.05-9.17,0-19.66,2.4-28.08,4.34-3.28.76-6.4,1.46-9.02,1.95-7.98,1.46-13.05,1.46-17.52,1.46s-9.38,0-17.36-1.46c-2.68-.48-5.86-1.21-9.22-1.98-8.37-1.93-18.77-4.31-27.88-4.31-13.15,0-32.53,2.81-42.97,8.04h-.01s-.03.02-.05.03c-8.63-1.07-15.64-1.8-20.77-2.23-.01-.01-.01-.02-.02-.03-18.98-25.55-29.01-55.91-29.01-87.83s10.01-62.3,28.99-87.82c.01-.01.01-.02.02-.03,4.01-.35,10.74-1,20.89-2.24.01.02.03.02.05.03,10.44,5.2,29.75,8,42.88,8,9.1,0,19.51-2.39,27.87-4.31,3.37-.77,6.55-1.51,9.23-1.99,7.98-1.45,12.96-1.45,17.36-1.45s9.54,0,17.52,1.45c2.62.48,5.74,1.2,9.03,1.96,8.42,1.93,18.9,4.34,28.07,4.34,13.13,0,32.46-2.81,42.9-8.01.01,0,.02-.01.03-.01,10.3,1.28,16.96,1.92,20.9,2.23,0,.01.01.01.01.02h.01c18.98,25.56,29.01,55.91,29.01,87.83s-10.02,62.27-29.01,87.82ZM351.08,189.82c-6.06,5.94-14.93,5.81-15.06,5.81h-30.26c-.71,0-1.68.04-2.91.11,18.33-25.65,28-55.82,28-87.51s-9.68-61.88-28.01-87.53c1.26.07,2.26.12,2.97.12h30.3c.07-.03,8.96-.11,15.02,5.83,3.86,3.79,5.82,9.25,5.82,16.24,0,7.51-3.83,12.11-7.9,16.98-4.25,5.11-8.65,10.39-8.65,19.1v56.87h-.05v1.66c0,8.7,4.4,13.98,8.65,19.1,4.06,4.87,7.9,9.48,7.9,16.97,0,7-1.97,12.48-5.83,16.26Z"/>
          </g>
          <path class="cls-3" d="M77.86,102.36c-3.76,0-6.82,3.05-6.82,6.81s3.06,6.82,6.82,6.82,6.81-3.06,6.81-6.82-3.05-6.81-6.81-6.81ZM77.86,112.67c-1.93,0-3.5-1.57-3.5-3.5s1.57-3.5,3.5-3.5,3.5,1.57,3.5,3.5-1.57,3.5-3.5,3.5Z"/>
          <g class="cls-13">
            <path class="cls-4" d="M282.14,102.36c-3.76,0-6.82,3.05-6.82,6.81s3.06,6.82,6.82,6.82,6.81-3.06,6.81-6.82-3.05-6.81-6.81-6.81ZM282.14,112.67c-1.93,0-3.5-1.57-3.5-3.5s1.57-3.5,3.5-3.5,3.5,1.57,3.5,3.5-1.57,3.5-3.5,3.5Z"/>
          </g>
          <g>
            <path class="cls-2" d="M180.12,25.6c-45.56,0-82.63,37.07-82.63,82.63s37.07,82.64,82.63,82.64,82.64-37.07,82.64-82.64S225.69,25.6,180.12,25.6ZM180.12,187.54c-43.73,0-79.3-35.58-79.3-79.31S136.4,28.91,180.12,28.91s79.31,35.59,79.31,79.31-35.58,79.31-79.31,79.31Z"/>
            <path class="cls-1" d="M180.12,101.41c-3.76,0-6.81,3.05-6.81,6.81s3.05,6.82,6.81,6.82,6.82-3.06,6.82-6.82-3.05-6.81-6.82-6.81ZM180.12,111.72c-1.93,0-3.5-1.57-3.5-3.5s1.57-3.5,3.5-3.5,3.51,1.57,3.51,3.5-1.57,3.5-3.51,3.5Z"/>
          </g>
          <path class="cls-5" d="M299.49,199.31c-6.78.55-32.53,2.98-78.66,10.83-5.31.91-9.91,1.83-14.36,2.73-9.82,1.98-17.57,3.54-26.31,3.56-8.81,0-16.55-1.57-26.35-3.55-4.46-.89-9.09-1.83-14.4-2.74-37.21-6.34-65.04-9.75-78.66-10.83-.25-.02-.49-.04-.74-.05l.02.02.75.05c13.61,1.08,41.43,4.51,78.66,10.83,5.32.92,9.93,1.84,14.39,2.75,9.8,1.98,17.55,3.55,26.36,3.55,8.74-.02,16.49-1.58,26.3-3.56,4.45-.89,9.07-1.82,14.36-2.74,46.13-7.85,71.88-10.28,78.67-10.83l.75-.06.02-.02c-.26.02-.53.04-.8.06ZM300.27,17.18l-.76-.06c-3.84-.29-10.77-.94-21.95-2.34-16.61-2.06-36.23-4.99-56.7-8.5-5.34-.91-9.96-1.84-14.42-2.75-9.81-1.98-17.56-3.54-26.31-3.54-8.75.02-16.51,1.58-26.32,3.56-4.46.89-9.09,1.82-14.39,2.73-20.48,3.51-40.09,6.43-56.71,8.5-11.01,1.35-18.03,2.02-21.96,2.34l-.75.06-.02.02c.26-.01.53-.03.8-.05,3.93-.33,10.93-.99,21.96-2.35,16.61-2.05,36.23-4.99,56.7-8.49,5.32-.91,9.93-1.84,14.39-2.74C163.65,1.6,171.4.04,180.16.03c8.75,0,16.5,1.56,26.3,3.54,4.47.91,9.1,1.83,14.42,2.75,20.47,3.5,40.08,6.43,56.71,8.49,11.22,1.41,18.13,2.05,21.95,2.35.25.02.49.03.74.05v-.02Z"/>
        </g>
      </g>
      <g>
        <path class="cls-12" d="M335.19,181.17c-3.76,0-6.82-3.06-6.82-6.82s3.06-6.82,6.82-6.82,6.82,3.06,6.82,6.82-3.06,6.82-6.82,6.82ZM335.19,170.85c-1.93,0-3.5,1.57-3.5,3.5s1.57,3.5,3.5,3.5,3.5-1.57,3.5-3.5-1.57-3.5-3.5-3.5Z"/>
        <g>
          <path class="cls-12" d="M25.23,48.98c-3.76,0-6.82-3.06-6.82-6.82s3.06-6.82,6.82-6.82,6.82,3.06,6.82,6.82-3.06,6.82-6.82,6.82ZM25.23,38.66c-1.93,0-3.5,1.57-3.5,3.5s1.57,3.5,3.5,3.5,3.5-1.57,3.5-3.5-1.57-3.5-3.5-3.5Z"/>
          <g>
            <path class="cls-12" d="M61.76,196.05s.01.02.02.03c5.14.43,12.14,1.16,20.77,2.23.02-.01.03-.02.05-.03-8.67-1.07-15.69-1.8-20.85-2.23ZM277.66,198.3s.03.01.04.02c10.45-1.3,17.36-1.95,20.79-2.23.01-.01.02-.03.03-.04-3.43.29-10.35.95-20.87,2.25ZM271.08,199.14h-.01c-12.75,1.66-29.65,4.13-50.8,7.73-5.35.92-10.19,1.88-14.47,2.75-9.63,1.94-17.25,3.47-25.73,3.5-8.39,0-15.99-1.54-25.62-3.48-4.27-.86-9.13-1.84-14.49-2.76-19.82-3.38-36.98-5.93-50.78-7.73h-.01s-.02,0-.03.01c13.81,1.81,30.99,4.37,50.84,7.74,5.37.93,10.21,1.91,14.5,2.77,9.61,1.94,17.21,3.47,25.62,3.47,8.49-.02,16.1-1.55,25.73-3.48,4.27-.86,9.11-1.84,14.46-2.76,21.15-3.6,38.06-6.06,50.82-7.74-.01-.01-.02-.01-.03-.01ZM82.65,18.13c-10.15,1.24-16.88,1.9-20.89,2.24-.01.01-.01.02-.02.03,4.02-.35,10.75-1,20.96-2.24-.02-.01-.04-.01-.05-.03ZM298.51,20.37c-3.94-.32-10.6-.95-20.9-2.23-.01,0-.02.01-.03.01,10.35,1.3,17,1.93,20.94,2.24,0-.01-.01-.01-.01-.02ZM205.77,6.8c-9.62-1.95-17.22-3.48-25.65-3.48-8.41.02-16.04,1.56-25.67,3.5-4.29.85-9.13,1.83-14.49,2.75-18.06,3.08-35.43,5.74-50.69,7.74.02,0,.03.01.05.01,15.26-2,32.62-4.63,50.65-7.72,5.37-.92,10.21-1.9,14.49-2.76,9.64-1.94,17.26-3.46,25.68-3.48,8.41,0,16.01,1.54,25.65,3.47,4.29.86,9.14,1.84,14.52,2.77,18.01,3.07,35.37,5.72,50.61,7.72.01,0,.03-.01.04-.01-15.27-2-32.64-4.65-50.69-7.74-5.37-.92-10.23-1.9-14.52-2.76Z"/>
            <path class="cls-12" d="M343.73,139.01v-60.05c0-7.51,3.83-12.11,7.9-16.98,4.25-5.11,8.65-10.39,8.65-19.1,0-7.93-2.31-14.19-6.84-18.64-7.09-6.92-16.98-6.77-17.36-6.75h-30.26c-1.08,0-3.03-.11-5.54-.29-.24-.02-.48-.03-.74-.05-3.82-.29-10.73-.94-21.95-2.35-16.62-2.05-36.24-4.99-56.71-8.49-5.33-.92-9.95-1.84-14.42-2.75C196.65,1.59,188.91.03,180.16.03c-8.76.01-16.51,1.57-26.33,3.55-4.46.89-9.08,1.83-14.39,2.74-20.47,3.5-40.08,6.43-56.7,8.49-11.03,1.36-18.04,2.02-21.96,2.35-.27.02-.54.04-.8.05-2.47.19-4.4.29-5.47.29h-30.22c-.42-.02-10.33-.18-17.42,6.74C2.31,28.67,0,34.94,0,42.88c0,8.71,4.4,13.99,8.67,19.1,4.05,4.87,7.89,9.48,7.89,16.98v58.53c0,7.5-3.83,12.1-7.89,16.97-4.26,5.12-8.67,10.4-8.67,19.1,0,7.93,2.31,14.2,6.85,18.64,7.09,6.93,16.97,6.76,17.35,6.76h30.27c.65,0,2.21.03,5.53.29.24.01.48.03.74.05,13.62,1.08,41.45,4.5,78.66,10.83,5.32.91,9.94,1.84,14.4,2.74,9.8,1.98,17.54,3.55,26.35,3.55,8.74-.02,16.49-1.58,26.31-3.56,4.45-.89,9.05-1.82,14.36-2.73,46.13-7.85,71.88-10.29,78.66-10.83.27-.02.54-.04.8-.06,2.47-.18,4.4-.28,5.47-.28h30.22c.42.01,10.31.18,17.39-6.74,4.55-4.43,6.85-10.71,6.85-18.66,0-8.7-4.4-13.98-8.65-19.1-3.78-4.54-7.36-8.83-7.84-15.46ZM139.97,9.56c5.36-.92,10.2-1.9,14.49-2.75,9.63-1.94,17.26-3.47,25.67-3.5,8.42,0,16.02,1.54,25.65,3.48,4.29.86,9.15,1.84,14.52,2.76,18.05,3.08,35.42,5.74,50.69,7.74-.01,0-.03.01-.04.01-10.41,3.61-25.46,5.53-36.26,5.53-8.79,0-19.07-2.36-27.33-4.25-3.33-.76-6.48-1.48-9.17-1.98-8.28-1.52-13.74-1.52-18.12-1.52s-9.69,0-17.95,1.52c-2.76.49-5.98,1.23-9.38,2.01-8.63,1.98-18.4,4.22-27.13,4.22-10.79,0-25.83-1.92-36.25-5.53-.02,0-.03-.01-.05-.01,15.26-2,32.63-4.65,50.69-7.74ZM54.48,195.63h-30.3c-.09.02-8.96.12-15.02-5.82-3.86-3.79-5.82-9.25-5.82-16.25,0-7.5,3.83-12.1,7.89-16.97,4.26-5.12,8.67-10.4,8.67-19.1v-58.53c0-8.71-4.4-13.99-8.67-19.1-4.05-4.87-7.89-9.48-7.89-16.98,0-6.99,1.96-12.46,5.83-16.25,6.06-5.95,14.94-5.82,15.08-5.82h30.26c.71,0,1.68-.04,2.92-.11-18.33,25.62-27.99,55.79-27.99,87.51s9.67,61.87,28,87.51c-1.24-.06-2.24-.11-2.95-.11ZM220.29,206.89c-5.35.92-10.18,1.9-14.46,2.76-9.63,1.94-17.25,3.46-25.73,3.48-8.4,0-16-1.54-25.62-3.47-4.29-.86-9.13-1.84-14.5-2.77-19.86-3.37-37.03-5.93-50.84-7.74.01-.01.02-.01.03-.01h.01c10.42-3.64,25.55-5.58,36.4-5.58,8.73,0,18.51,2.24,27.13,4.22,3.41.78,6.62,1.52,9.37,2.01,8.28,1.52,13.42,1.52,17.96,1.52s9.84,0,18.12-1.52c2.7-.48,5.84-1.21,9.17-1.98,8.25-1.9,18.54-4.25,27.33-4.25,10.84,0,25.97,1.94,36.4,5.58h.01s.02,0,.03.01c-12.76,1.67-29.67,4.14-50.82,7.74ZM298.53,196.04s-.02.03-.03.04c-3.43.28-10.34.94-20.79,2.23-.01-.01-.02-.02-.04-.02-10.42-5.24-29.83-8.05-42.99-8.05-9.17,0-19.66,2.4-28.08,4.34-3.28.76-6.4,1.46-9.02,1.95-7.98,1.46-13.05,1.46-17.52,1.46s-9.38,0-17.36-1.46c-2.68-.48-5.86-1.21-9.22-1.98-8.37-1.93-18.77-4.31-27.88-4.31-13.15,0-32.53,2.81-42.97,8.04h-.01s-.03.02-.05.03c-8.63-1.07-15.64-1.8-20.77-2.23-.01-.01-.01-.02-.02-.03-18.98-25.55-29.01-55.91-29.01-87.83s10.01-62.3,28.99-87.82c.01-.01.01-.02.02-.03,4.01-.35,10.74-1,20.89-2.24.01.02.03.02.05.03,10.44,5.2,29.75,8,42.88,8,9.1,0,19.51-2.39,27.87-4.31,3.37-.77,6.55-1.51,9.23-1.99,7.98-1.45,12.96-1.45,17.36-1.45s9.54,0,17.52,1.45c2.62.48,5.74,1.2,9.03,1.96,8.42,1.93,18.9,4.34,28.07,4.34,13.13,0,32.46-2.81,42.9-8.01.01,0,.02-.01.03-.01,10.3,1.28,16.96,1.92,20.9,2.23,0,.01.01.01.01.02h.01c18.98,25.56,29.01,55.91,29.01,87.83s-10.02,62.27-29.01,87.82ZM351.08,189.82c-6.06,5.94-14.93,5.81-15.06,5.81h-30.26c-.71,0-1.68.04-2.91.11,18.33-25.65,28-55.82,28-87.51s-9.68-61.88-28.01-87.53c1.26.07,2.26.12,2.97.12h30.3c.07-.03,8.96-.11,15.02,5.83,3.86,3.79,5.82,9.25,5.82,16.24,0,7.51-3.83,12.11-7.9,16.98-4.25,5.11-8.65,10.39-8.65,19.1v56.87h-.05v1.66c0,8.7,4.4,13.98,8.65,19.1,4.06,4.87,7.9,9.48,7.9,16.97,0,7-1.97,12.48-5.83,16.26Z"/>
          </g>
          <path class="cls-12" d="M77.86,102.36c-3.76,0-6.82,3.05-6.82,6.81s3.06,6.82,6.82,6.82,6.81-3.06,6.81-6.82-3.05-6.81-6.81-6.81ZM77.86,112.67c-1.93,0-3.5-1.57-3.5-3.5s1.57-3.5,3.5-3.5,3.5,1.57,3.5,3.5-1.57,3.5-3.5,3.5Z"/>
          <path class="cls-12" d="M282.14,102.36c-3.76,0-6.82,3.05-6.82,6.81s3.06,6.82,6.82,6.82,6.81-3.06,6.81-6.82-3.05-6.81-6.81-6.81ZM282.14,112.67c-1.93,0-3.5-1.57-3.5-3.5s1.57-3.5,3.5-3.5,3.5,1.57,3.5,3.5-1.57,3.5-3.5,3.5Z"/>
          <g>
            <path class="cls-12" d="M180.12,25.6c-45.56,0-82.63,37.07-82.63,82.63s37.07,82.64,82.63,82.64,82.64-37.07,82.64-82.64S225.69,25.6,180.12,25.6ZM180.12,187.54c-43.73,0-79.3-35.58-79.3-79.31S136.4,28.91,180.12,28.91s79.31,35.59,79.31,79.31-35.58,79.31-79.31,79.31Z"/>
            <path class="cls-12" d="M180.12,101.41c-3.76,0-6.81,3.05-6.81,6.81s3.05,6.82,6.81,6.82,6.82-3.06,6.82-6.82-3.05-6.81-6.82-6.81ZM180.12,111.72c-1.93,0-3.5-1.57-3.5-3.5s1.57-3.5,3.5-3.5,3.51,1.57,3.51,3.5-1.57,3.5-3.51,3.5Z"/>
          </g>
          <path class="cls-12" d="M299.49,199.31c-6.78.55-32.53,2.98-78.66,10.83-5.31.91-9.91,1.83-14.36,2.73-9.82,1.98-17.57,3.54-26.31,3.56-8.81,0-16.55-1.57-26.35-3.55-4.46-.89-9.09-1.83-14.4-2.74-37.21-6.34-65.04-9.75-78.66-10.83-.25-.02-.49-.04-.74-.05l.02.02.75.05c13.61,1.08,41.43,4.51,78.66,10.83,5.32.92,9.93,1.84,14.39,2.75,9.8,1.98,17.55,3.55,26.36,3.55,8.74-.02,16.49-1.58,26.3-3.56,4.45-.89,9.07-1.82,14.36-2.74,46.13-7.85,71.88-10.28,78.67-10.83l.75-.06.02-.02c-.26.02-.53.04-.8.06ZM300.27,17.18l-.76-.06c-3.84-.29-10.77-.94-21.95-2.34-16.61-2.06-36.23-4.99-56.7-8.5-5.34-.91-9.96-1.84-14.42-2.75-9.81-1.98-17.56-3.54-26.31-3.54-8.75.02-16.51,1.58-26.32,3.56-4.46.89-9.09,1.82-14.39,2.73-20.48,3.51-40.09,6.43-56.71,8.5-11.01,1.35-18.03,2.02-21.96,2.34l-.75.06-.02.02c.26-.01.53-.03.8-.05,3.93-.33,10.93-.99,21.96-2.35,16.61-2.05,36.23-4.99,56.7-8.49,5.32-.91,9.93-1.84,14.39-2.74C163.65,1.6,171.4.04,180.16.03c8.75,0,16.5,1.56,26.3,3.54,4.47.91,9.1,1.83,14.42,2.75,20.47,3.5,40.08,6.43,56.71,8.49,11.22,1.41,18.13,2.05,21.95,2.35.25.02.49.03.74.05v-.02Z"/>
        </g>
      </g>
    </g>
    <path class="cls-10" d="M233.46,55.95l-45.85,104.55h-14.79l-46-104.55h16.13l37.64,85.88,37.94-85.88h14.94Z"/>
    <path class="cls-10" d="M310.08,134.36h-55.56l-11.5,26.14h-15.38l47.35-104.55h14.79l47.49,104.55h-15.68l-11.5-26.14ZM304.85,122.41l-22.55-51.23-22.55,51.23h45.1Z"/>
  </g>
</svg>